<svg width="43" height="43" viewBox="0 0 43 43" fill="none" xmlns="http://www.w3.org/2000/svg">
<path d="M42.3281 21.5C42.3281 33.0056 33.0022 42.3281 21.5 42.3281C9.99775 42.3281 0.671875 33.0056 0.671875 21.5C0.671875 10.0011 9.99775 0.671875 21.5 0.671875C33.0022 0.671875 42.3281 10.0011 42.3281 21.5ZM22.0589 7.55859C17.482 7.55859 14.5629 9.48662 12.2706 12.9133C11.9737 13.3572 12.073 13.9559 12.4986 14.2787L15.4128 16.4883C15.85 16.8198 16.4728 16.7409 16.8124 16.3101C18.3127 14.4072 19.3414 13.3037 21.625 13.3037C23.3407 13.3037 25.4629 14.4079 25.4629 16.0717C25.4629 17.3294 24.4246 17.9753 22.7305 18.9251C20.7549 20.0326 18.1406 21.4111 18.1406 24.8594V25.1953C18.1406 25.7519 18.5919 26.2031 19.1484 26.2031H23.8516C24.4081 26.2031 24.8594 25.7519 24.8594 25.1953V25.0834C24.8594 22.693 31.8457 22.5935 31.8457 16.125C31.8457 11.2537 26.7928 7.55859 22.0589 7.55859ZM21.5 28.3867C19.3697 28.3867 17.6367 30.1197 17.6367 32.25C17.6367 34.3802 19.3697 36.1133 21.5 36.1133C23.6303 36.1133 25.3633 34.3802 25.3633 32.25C25.3633 30.1197 23.6303 28.3867 21.5 28.3867Z" fill="white"/>
</svg>
