<svg width="45" height="45" viewBox="0 0 45 45" fill="none" xmlns="http://www.w3.org/2000/svg">
<path d="M5.625 3.75H11.25C11.775 3.75 12.2437 3.95625 12.5812 4.29375L16.4812 8.2125L17.9812 6.73125C18.75 6 19.6875 5.625 20.625 5.625H31.875C32.8125 5.625 33.75 6 34.5187 6.73125L36.3937 8.60625C37.125 9.375 37.5 10.3125 37.5 11.25V35.625C37.5 36.6196 37.1049 37.5734 36.4016 38.2766C35.6984 38.9799 34.7446 39.375 33.75 39.375H15C14.0054 39.375 13.0516 38.9799 12.3483 38.2766C11.6451 37.5734 11.25 36.6196 11.25 35.625V15C11.25 14.0625 11.625 13.125 12.3562 12.3563L13.8375 10.8562L10.4812 7.5H5.625V3.75ZM20.625 9.375V13.125H31.875V9.375H20.625ZM21.3937 20.625L17.6437 16.875H15V19.5187L18.75 23.2687V29.2313L15 32.9813V35.625H17.6437L21.3937 31.875H27.3562L31.1062 35.625H33.75V32.9813L30 29.2313V23.2687L33.75 19.5187V16.875H31.1062L27.3562 20.625H21.3937ZM22.5 24.375H26.25V28.125H22.5V24.375Z" fill="#7C7DDC"/>
</svg>
