<svg width="45" height="37" viewBox="0 0 45 37" fill="none" xmlns="http://www.w3.org/2000/svg">
<g clip-path="url(#clip0_760_1155)">
<path d="M20.1305 11.4055C20.2078 11.8836 20.25 12.3758 20.25 12.8117C20.25 13.3742 20.2078 13.8664 20.1305 14.3445L21.6914 15.7367C22.1836 16.1797 22.3875 16.8195 22.1274 17.4945C21.9657 17.8039 21.7899 18.2328 21.593 18.5844L21.375 18.9641C21.1008 19.3156 20.9321 19.6531 20.686 19.9836C20.2852 20.518 19.5821 20.6937 18.9492 20.4828L16.9594 19.8289C16.2071 20.4547 15.3492 20.9539 14.4141 21.3055L13.9289 23.3445C13.8516 23.9984 13.3453 24.5187 12.6844 24.6031C12.2133 24.6594 11.7352 24.6875 11.25 24.6875C10.7649 24.6875 10.2867 24.6594 9.81565 24.6031C9.15471 24.5187 8.58518 23.9984 8.50784 23.3445L8.02268 21.3055C7.1508 20.9539 6.29299 20.4547 5.53713 19.8289L3.55291 20.4828C2.9208 20.6937 2.21627 20.518 1.81549 19.9836C1.56658 19.6531 1.33455 19.3086 1.1208 18.957L0.908459 18.5844C0.712288 18.2328 0.533834 17.8672 0.374366 17.4945C0.113928 16.8195 0.313475 16.1797 0.810022 15.7367L2.36955 14.3445C2.2908 13.8664 2.18674 13.3742 2.18674 12.8117C2.18674 12.3758 2.2908 11.8836 2.36955 11.4055L0.810022 10.0133C0.313475 9.50703 0.113928 8.86719 0.374366 8.25547C0.533834 7.81953 0.712288 7.51648 0.907756 7.16281L1.12151 6.79367C1.33455 6.43859 1.56658 6.09547 1.81549 5.7657C2.21627 5.23484 2.9208 5.05836 3.55291 5.26648L5.53713 5.92039C6.29299 5.29883 7.1508 4.7982 8.02268 4.44805L8.50784 2.40406C8.58518 1.75156 9.15471 1.22914 9.81565 1.14905C10.2916 1.09133 10.7706 1.06242 11.25 1.0625C11.7352 1.0625 12.2133 1.09189 12.6844 1.14898C13.3453 1.22914 13.8516 1.75156 13.9289 2.40406L14.4141 4.44805C15.3492 4.7982 16.2071 5.29883 16.9594 5.92039L18.9492 5.26648C19.5821 5.05836 20.2852 5.23484 20.686 5.7657C20.9321 6.09406 21.1008 6.43578 21.375 6.78875L21.593 7.16773C21.7899 7.52 21.9657 7.88281 22.1274 8.25547C22.3875 8.86719 22.1836 9.50703 21.6914 10.0133L20.1305 11.4055ZM11.25 9.43672C9.38674 9.43672 7.87502 11.0117 7.87502 12.8117C7.87502 14.7383 9.38674 16.1867 11.25 16.1867C13.1133 16.1867 14.625 14.7383 14.625 12.8117C14.625 11.0117 13.1133 9.43672 11.25 9.43672ZM34.0946 34.1305C33.6164 34.2078 33.1242 34.25 32.625 34.25C32.1258 34.25 31.6336 34.2078 31.1555 34.1305L29.7633 35.6914C29.2571 36.1836 28.6172 36.3875 28.0055 36.1273C27.6328 35.9656 27.2672 35.7898 26.9156 35.593L26.536 35.375C26.1844 35.1008 25.8469 34.932 25.5164 34.6859C24.9821 34.2852 24.8063 33.582 25.0172 32.9492L25.6711 30.9594C25.0453 30.207 24.5461 29.3492 24.1946 28.4141L22.1555 27.9289C21.5016 27.8516 20.9813 27.3453 20.8969 26.6844C20.8407 26.2133 20.8125 25.7352 20.8125 25.25C20.8125 24.7648 20.8407 24.2867 20.8969 23.8156C20.9813 23.1547 21.5016 22.5852 22.1555 22.5078L24.1946 22.0227C24.5461 21.1508 25.0453 20.293 25.6711 19.5406L25.0172 17.5508C24.8063 16.918 24.9821 16.2148 25.5164 15.8141C25.8469 15.568 26.1914 15.2727 26.543 15.118L26.9156 14.907C27.2672 14.7102 27.5696 14.5344 28.0055 14.3727C28.6172 14.1125 29.2571 14.3164 29.7633 14.8086L31.1555 16.3695C31.6336 16.2922 32.1258 16.25 32.625 16.25C33.1242 16.25 33.6164 16.2922 34.0946 16.3695L35.4867 14.8086C35.9297 14.3164 36.5696 14.1125 37.2446 14.3727C37.6172 14.5344 37.9828 14.7102 38.3344 14.907L38.7071 15.118C39.0586 15.2727 39.4031 15.568 39.7336 15.8141C40.268 16.2148 40.4438 16.918 40.2328 17.5508L39.5789 19.5406C40.2047 20.293 40.7039 21.1508 41.0555 22.0227L43.0946 22.5078C43.7485 22.5852 44.2688 23.1547 44.3531 23.8156C44.4094 24.2867 44.4375 24.7648 44.4375 25.25C44.4375 25.7352 44.4094 26.2133 44.3531 26.6844C44.2688 27.3453 43.7485 27.8516 43.0946 27.9289L41.0555 28.4141C40.7039 29.3492 40.2047 30.207 39.5789 30.9594L40.2328 32.9492C40.4438 33.582 40.268 34.2852 39.7336 34.6859C39.4031 34.932 39.0656 35.1008 38.7141 35.375L38.3344 35.593C37.9828 35.7898 37.5539 35.9656 37.2446 36.1273C36.5696 36.3875 35.9297 36.1836 35.4867 35.6914L34.0946 34.1305ZM36 25.25C36 23.3867 34.4883 21.875 32.625 21.875C30.7617 21.875 29.25 23.3867 29.25 25.25C29.25 27.1133 30.7617 28.625 32.625 28.625C34.4883 28.625 36 27.1133 36 25.25Z" fill="#7C7DDC"/>
</g>
<defs>
<clipPath id="clip0_760_1155">
<rect width="45" height="36" fill="white" transform="translate(0 0.5)"/>
</clipPath>
</defs>
</svg>
